<?xml version="1.0" encoding="UTF-8" standalone="no"?>
<!DOCTYPE svg PUBLIC "-//W3C//DTD SVG 1.1//EN" "http://www.w3.org/Graphics/SVG/1.1/DTD/svg11.dtd">
<svg width="100%" height="100%" viewBox="0 0 220 220" version="1.1" xmlns="http://www.w3.org/2000/svg" xmlns:xlink="http://www.w3.org/1999/xlink" xml:space="preserve" xmlns:serif="http://www.serif.com/" style="fill-rule:evenodd;clip-rule:evenodd;stroke-linejoin:round;stroke-miterlimit:2;">
    <g transform="matrix(1,0,0,1,-309.196,-639.275)">
        <g transform="matrix(1,0,0,1,-684.729,2.04636e-12)">
            <g id="Outline" transform="matrix(6.73556e-17,-1.1,1.1,6.73556e-17,820.636,1736.66)">
                <path d="M997.623,212.081C997.623,197.614 991.876,183.74 981.647,173.511C971.418,163.282 957.544,157.535 943.077,157.535L797.623,157.535L797.623,302.99C797.623,317.456 803.37,331.33 813.599,341.559C823.828,351.788 837.702,357.535 852.168,357.535L997.623,357.535L997.623,212.081Z"/>
            </g>
            <g id="Combined" transform="matrix(6.12323e-17,-1,1,6.12323e-17,846.39,1646.9)">
                <path d="M997.623,207.535C997.623,194.274 992.355,181.557 982.978,172.18C973.601,162.803 960.884,157.535 947.623,157.535C888.383,157.535 797.623,157.535 797.623,157.535L797.623,307.535C797.623,320.796 802.891,333.514 812.267,342.891C821.644,352.267 834.362,357.535 847.623,357.535L922.623,357.535L922.623,320.035L972.623,320.035L972.623,357.535L997.623,357.535L997.623,207.535ZM847.623,282.535C840.992,282.535 834.634,285.169 829.945,289.858C825.257,294.546 822.623,300.905 822.623,307.535L822.623,307.535C822.623,321.342 833.816,332.535 847.623,332.535L897.623,332.535L897.623,282.535L847.623,282.535ZM972.623,207.535C972.623,200.905 969.989,194.546 965.3,189.858C960.612,185.169 954.253,182.535 947.623,182.535L922.623,182.535L922.623,295.035L972.623,295.035L972.623,207.535ZM822.623,232.535L822.623,257.535L872.623,257.535L872.623,232.535L822.623,232.535ZM822.623,182.535L822.623,207.535L872.623,207.535L872.623,182.535L822.623,182.535Z" style="fill:rgb(241,106,39);"/>
            </g>
        </g>
    </g>
</svg>
